<?xml version="1.0" standalone="no"?>
<!DOCTYPE svg PUBLIC "-//W3C//DTD SVG 1.1//EN" "http://www.w3.org/Graphics/SVG/1.1/DTD/svg11.dtd" >
<svg xmlns="http://www.w3.org/2000/svg" xmlns:xlink="http://www.w3.org/1999/xlink" version="1.1">
<metadata></metadata>
<defs>
<font id="sddystopianregular" horiz-adv-x="0" >
<font-face units-per-em="2048" ascent="1638" descent="-410" />
<missing-glyph horiz-adv-x="686" />
<glyph />
<glyph />
<glyph horiz-adv-x="682" />
<glyph unicode="&#xa;" />
<glyph unicode="&#xd;" />
<glyph unicode=" "  horiz-adv-x="686" />
<glyph unicode="&#x09;" horiz-adv-x="686" />
<glyph unicode="&#xa0;" horiz-adv-x="686" />
<glyph unicode="!" horiz-adv-x="462" d="M287 -10h-213v213h213v-213zM187 1125h209v-364l-109 -109v-372h-213v159l113 114v572z" />
<glyph unicode="&#x22;" horiz-adv-x="604" d="M269 717h-88l-41 225v194h166v-194zM535 717h-87l-40 225v194h166v-194z" />
<glyph unicode="#" horiz-adv-x="1124" d="M1079 892h-182l-53 -300h183l-23 -132h-182l-50 -286h-138l50 286h-238l-63 -63l-50 -285h-139l21 117l29 168h-183l23 132h182l53 300h-183l23 132h182l50 285h139l-50 -285h245l50 285h138l-50 -285h77l62 63h101zM570 591h135l28 156l-54 -54l24 136h-245l-53 -300 h103z" />
<glyph unicode="$" horiz-adv-x="1085" d="M915 528l46 -46v-265l-175 -176h-170v-208h-144v208h-212l-167 169l129 128l130 -130h38v153l142 142h-236h-11l-158 160v254l175 175h170v209h143v-209h174l163 -163l-128 -129l-125 126h-84v-271l90 -6l165 -166zM472 665v261h-79l-76 -77v-117l60 -60zM770 285v98 l-17 -17q-11 11 -44.5 44t-44.5 44v49h-129v-295h159z" />
<glyph unicode="%" horiz-adv-x="1296" d="M861 539h211l93 -93v-329l-86 -86l-20 -19h-204l-111 110v150l3 3l-3 2v145zM1049 151v237l-27 28h-134l-28 -28v-227l41 -40h118zM540 631h-234l-86 85l-35 -35l-55 55v291l119 119h216l57 -56l36 -37l29 29l51 -50v-303zM246 741l5 6l57 56l56 -56h158v270l-51 -51 l-64 64h-124l-37 -37v-252zM786 631l-42 -76l-9 -16l-58 -105l-10 -18l-22 -40l-7 -13l-23 -41l-25 -45l-7 -13l-4 -8l-57 -102l-19 -33l-60 -109h-138l60 109l129 232l7 12l21 37l4 8l3 6l27 49l32 57l10 17l40 72l11 20l56 101l8 15l31 56l23 41l18 32l4 4l-1 2l72 130 l10 18l65 116h114v-6l6 6h18l-24 -42l-41 -74l-132 -237l-16 -29l-4 -8l-5 -9l-57 -103z" />
<glyph unicode="&#x26;" horiz-adv-x="1261" d="M1153 1l3 -3h-245l-4 3l-11 11l-119 116l-127 -130h-638l109 112l-45 45v146l2 2l254 254l-26 24l2 1l-145 142v255l154 153h350l120 -120l34 -33v-163l-249 -248l4 -3l21 -21l-2 -1l179 -173l2 2l140 138l121 -122l-140 -140zM343 911v-122l112 -109l185 185v46l-65 65 h-167zM560 156l92 92l-198 194l-4 4l-187 -187v-43l60 -60h237z" />
<glyph unicode="'" horiz-adv-x="364" d="M286 717h-89l-40 225v194h165v-194z" />
<glyph unicode="(" horiz-adv-x="563" d="M417 -102l46 47l126 -126l-107 -106l-125 125l-30 -30l-24 -23l-246 245v283l19 19l79 79v492l172 171l157 158l107 -107l-264 -264v-279l-107 -106v-380z" />
<glyph unicode=")" horiz-adv-x="571" d="M108 1232q47 -46 99 -98t115.5 -116t98.5 -99v-870l-316 -316l-102 102q40 40 127 126.5t132 131.5v773q-44 44 -133 132t-133 132q17 17 50.5 51.5t50.5 51.5h6q4 0 5 -1z" />
<glyph unicode="*" horiz-adv-x="856" d="M814 804l-250 -64l172 -212l-133 -95l-145 222l-149 -222l-134 95l173 212l-249 64l49 155l236 -96l-18 277h181l-19 -278l237 97z" />
<glyph unicode="+" horiz-adv-x="1026" d="M933 351h-446v-286l11 -10h7l65 52v-107h-243v226l83 97v26h-349v161h349v352h159v-352h280v-101l84 63v-121z" />
<glyph unicode="," horiz-adv-x="358" d="M16 201h210v-165l-150 -295h-94l99 250h-65v210z" />
<glyph unicode="-" horiz-adv-x="978" d="M95 670h817v-145q-2 -2 -6.5 -6t-7.5 -7h-827v134z" />
<glyph unicode="." horiz-adv-x="362" d="M147 132h80v-138h-211v210h131v-72z" />
<glyph unicode="/" horiz-adv-x="667" d="M499 901l164 165l-471 -1067h-194l318 720l-138 -139l244 552h179z" />
<glyph unicode="0" horiz-adv-x="1163" d="M1073 922l4 -3v-367l-126 -126v-216l-110 -110l-103 -103h-320l-185 185v339l-132 -132v341l132 133v87l186 185h325l52 -51l51 51h13zM841 316v539l-68 67h-374l-68 -67v-236l126 126v-452l84 -83h193z" />
<glyph unicode="1" horiz-adv-x="1058" d="M510 206h419v-206h-929l116 116v90h168v78l122 122v481l-125 -126l-149 148l152 152l67 68h294v-484l-124 -124l-11 11v-326z" />
<glyph unicode="2" horiz-adv-x="1099" d="M952 952v-288l-3 -3h-128l-196 -200h-320v-316l74 74h573v-211h-825v147l-1 -1v316l204 204h316l64 63v126l-55 55h-249l-114 -115l-165 165l166 167h477z" />
<glyph unicode="3" horiz-adv-x="1085" d="M786 535l168 -168v-196l-175 -175h-498l-69 70q-7 8 -15.5 16t-18.5 18l-15 15l-48 47l-28 28q25 25 76 76.5t76 76.5l28 -28l48 -48l49 -49q2 -2 4 -4.5t3 -3.5h302q6 6 17.5 18t17.5 18l21 21v105l-21 21l-32 32l-41 41h-320l211 211h103l78 78v96l-75 75h-234 l-127 -127q-22 22 -65 64.5t-63 62.5q-4 4 -13 13.5t-14 14.5q20 19 62 60.5t64 64.5q9 9 28.5 29t29.5 30h446l172 -172l14 -14v-161l-1 -1h-92l-220 -219h131z" />
<glyph unicode="4" horiz-adv-x="1198" d="M958 451h125v-212h-125v-242h-226v242h-674v202l8 10l522 681h237v-423l133 133v-391zM732 451v165l-129 -129v357l-302 -393h431z" />
<glyph unicode="5" horiz-adv-x="1056" d="M735 709l190 -190v-348l-54 -55l-117 -116h-509l-126 126l-64 64l19 20l134 133l130 -130v-3h310l68 67v152l-65 64h-532v316l116 117v209h636v-213h-533v-213h397z" />
<glyph unicode="6" horiz-adv-x="1236" d="M1112 518v-310h-2l2 -1v-6l-199 -198h-455l-205 204v416l-120 -120h-10v412l219 219h594l151 -151l-161 -161l-103 103h-370l-93 -93v-102l114 114l16 18v-239l84 84h348zM866 271v182l-50 50h-210l-116 -116v-111l68 -68h245z" />
<glyph unicode="7" horiz-adv-x="884" d="M818 1137v-15l-113 -201l6 -7l107 -106v-137l-126 -224l-125 -219l-128 -228h-255l221 391l124 219l127 225l-79 79l-1 1v-1h-352l-218 219v4h812z" />
<glyph unicode="8" horiz-adv-x="1079" d="M877 362v-136l94 94v-148q-9 -9 -83 -83.5t-85 -85.5h-523l-168 169v279l22 21l6 6l98 99l-98 98v292q161 161 170 171h463q23 -23 85.5 -86t84.5 -85v-285q-10 -10 -48 -48.5t-47 -47.5l38.5 -38.5l50 -50l38.5 -38.5zM745 278v105l-90 90h-220l-104 -104v-94l56 -56 h299zM745 783v66l-80 80h-243l-66 -66v-91l87 -87h205z" />
<glyph unicode="9" horiz-adv-x="1181" d="M1050 920v-294h-8l8 -8v-399l-211 -211h-468l-26 27l-54 54l-56 55l-20 21l41 42l110 110l110 -110h261l80 80v219l-98 -97h-334l-198 198l-56 -56l-3 4v393l189 189h500v-2h18l175 -175l21 -21zM817 725l-1 126l-70 70h-391l-64 -63v-147l136 136v-146l75 -75h215z" />
<glyph unicode=":" horiz-adv-x="460" d="M311 -5h-211v210h211v-210zM231 683h79v-137h-210v210h131v-73z" />
<glyph unicode=";" horiz-adv-x="477" d="M122 201h210v-165l-150 -295h-94l99 250h-65v210zM310 698v-138h-210v210h131v-72h79z" />
<glyph unicode="&#x3c;" horiz-adv-x="952" d="M810 679l-344 -154l-218 -98l218 -98l344 -154v-172l-344 154v43l-362 163l-41 18v139l403 181l344 154v-176z" />
<glyph unicode="=" horiz-adv-x="1032" d="M37 324l74 71h802v-156h-876v85zM459 743h454v-157h-611z" />
<glyph unicode="&#x3e;" horiz-adv-x="950" d="M813 495l41 -18v-140l-403 -181l-343 -154v177l343 154l219 98l-219 98l-343 154v172l343 -154v-43z" />
<glyph unicode="?" horiz-adv-x="987" d="M587 6h-214v213h214v-213zM907 984l23 -23v-246l-171 -171h-126l-55 -55v-163h-204v243l118 118h177l68 68v126l-26 25l-77 78h-260v-2l-136 -135l-137 137l162 161h483l102 -102z" />
<glyph unicode="@" horiz-adv-x="1337" d="M1002 1136l205 -205v-711h-173v126l-126 -127h-228l-144 144v244l95 95l40 40h363v114l-119 121h-468l-155 -155l1 -289l82 83v-421l162 -163h488l-51 -68v-92l-514 -5l-257 258v316l-79 -76l-2 514l257 257h623zM1034 514v82l-277 -3h-2l-38 -38v-138l38 -38h145z" />
<glyph unicode="B" horiz-adv-x="1218" d="M1116 458l30 -30v-123l-305 -305h-798l80 80v1052h787l206 -205v-230l-120 -120l93 -92l-2 -3h4zM762 942h-349v-288h284l133 133v86zM863 258v98l-127 126h-323v-112l-112 -112v-77h484z" />
<glyph unicode="C" horiz-adv-x="1202" d="M986 372l156 -156l-217 -216h-502l-4 4v-4h-119l62 61l-165 165v376l-91 -91v127l-36 35v194l268 267h585l196 -196l-154 -154l-147 146h-390l-102 -99v-100l93 93v-500l103 -102l-2 -2h313z" />
<glyph unicode="D" horiz-adv-x="1202" d="M995 1039l130 -131v-530l-66 -65v-81l-18.5 -18.5t-42.5 -42t-58.5 -57.5t-55.5 -55t-44.5 -44t-15.5 -15h-706v162l126 126v248l-126 -126v727h779zM899 313v517l-95 95h-370l-84 -83v-199l130 129v-248l-130 -130v-175h455z" />
<glyph unicode="F" horiz-adv-x="1019" d="M296 670h684v-198h-687l-27 -28v-236l25 -25v-183h-250v415l9 9l48 48l69 69v596h757v-208h-527v-158l-101 -101h-3v-3z" />
<glyph unicode="G" horiz-adv-x="1218" d="M1102 661h6v-661h-223v63l-49 -48v-1l-14 -14h-774l54 54l62 62l-62 62v746l209 209h598l97 -97l39 -39l-163 -163l-46 46l-63 64h-331l-97 -98v-549l-62 -62l57 -57h221l153 153v146h-184v184h476v-96zM836 335v64l-224 -224h64l38 39z" />
<glyph unicode="H" horiz-adv-x="1212" d="M1091 1046l-107 -107v-257l107 109v-791h-236v459h-467v-116l-113 -114v-229h-230l79 79v1058h264v-455h339l128 127v328h236v-91z" />
<glyph unicode="J" horiz-adv-x="905" d="M807 452l-104 -104v-116l104 104v-116l-220 -220h-439l-188 188l35 35l126 126l126 -126h232l81 81v831h247v-683z" />
<glyph unicode="K" horiz-adv-x="1183" d="M742 424l424 -424h-295l-276 277l-59 -59l-94 93l59 59l-131 131v-262l-116 -116v-123h-106v327l-63 -63v96h-1l-28 29v174l92 93v482h222v-204l-115 -116v-55l-1 -1v-97l1 1l467 468h377l-533 -534l82 -82l-59 -60l93 -94z" />
<glyph unicode="L" horiz-adv-x="1034" d="M966 221h4v-97h-102l-123 -124h-613v316l-74 -74v142l74 74v675h229v-446l-78 -77v-142l78 77v-322h606z" />
<glyph unicode="M" horiz-adv-x="1316" d="M1201 683l-60 -60v-408l60 60v-275h-291v391l66 66v239l-66 -122l-221 -404h-106l-57 107l-234 434v-349l-86 -86v-276h-85v1133h168l3 -5l1 -2l47 -87l11 -20l287 -534l272 505l66 123l10 20h215v-450z" />
<glyph unicode="N" horiz-adv-x="1226" d="M801 1137h303v-1137h-190l-32 43l-81 111l-311 427l-49 -48l-66 91l-74 102v-333l74 74v-467h-229v238l-80 -81v378l80 80v522h215l14 -19l116 -159l-50 -50l159 -218l50 50l151 -208l81 -111v551l-81 -80v244z" />
<glyph unicode="P" horiz-adv-x="1138" d="M1004 1030l92 -92v-177l-92 -92v-67l-190 -191h-434v-366l-45 -45h-182v1069l-116 -116v183h861zM879 674v215l-59 58h-440v-342h429z" />
<glyph unicode="Q" horiz-adv-x="1157" d="M907 75l217 -216h-284q-17 18 -67 70.5t-66 70.5v-2h-504l-64 69l54 54l-97 98v688l226 226h515l183 -183l-83 -83v-285q15 15 38 37.5t50.5 50.5t37.5 38v-476zM833 764v55l-1 1v3l-97 97h-310l-99 -99v-513l29 -24l-67 -68h447q4 4 48 47.5t50 49.5v165l-126 -126v285z " />
<glyph unicode="R" horiz-adv-x="1273" d="M944 431l244 -431h-240l-250 441h-296v-441h-211l1 722l-127 -127v233l125 125v189h755l189 -189v-332zM911 689v204l-58 58h-582l1 -150l128 129v-309h437z" />
<glyph unicode="S" horiz-adv-x="1146" d="M969 599l30 -30l58 -58v-56l-154 -154v-2l85 -85l69 69v-118l-17 -17l-137 -135l-12 -12h-656l-24 -1h-99l62 62l-123 120l164 164l120 -123l15 -15h210l135 134l84 85l-70 70h-15h-3h-82l-346 -2l-170 170v276l77 77l114 114h600l19 -19l156 -153l-164 -164l-126 129 h-352l-67 -66v-118l53 -53h97l195 1h106h68h9l1 -1l1 1zM821 300v91l-12 -12l-115 -114l-56 -57h90z" />
<glyph unicode="T" horiz-adv-x="1050" d="M51 1142h992l-121 -121v-97h-261v-164l-27 -27l-4 -4l-61 -62v-420l61 61l4 4l27 27v-339h-237v102l-102 -102h-10v411l112 111v402h-373v218z" />
<glyph unicode="V" horiz-adv-x="1175" d="M889 1139h243l-422 -1082l-1 -2l-22 -55h-204l-21 54l-79 204l-55 141l-60 -58l-108 275l59 59l1 1l-181 463h247l111 -286l-77 -78l108 -275l77 76l1 -2l80 -204v1l187 474z" />
<glyph unicode="W" horiz-adv-x="1533" d="M1267 1135h236l-308 -1135h-233v1l-52 191l-101 369l-81 -81l-16 60l-52 191l-119 -438l143 143l-112 -413l-7 -23h-221l-20 76l-72 -72l-194 715l72 71l-94 345h234l43 -161l-84 -85l132 -484l53 198l141 516l4 16h210l1 -1l52 -191l78 -291l80 79l38 -140l52 -191 l114 422l43 157l-1 -2z" />
<glyph unicode="X" horiz-adv-x="1193" d="M955 262l191 -262h-271l-55 76l-50 -69l-131 180l50 68l-97 135l-51 -68l-233 -322h-271l369 508l50 69l-405 557h271l270 -370l269 370h271l-405 -557l98 -135l-50 -69l130 -180z" />
<glyph unicode="Z" horiz-adv-x="1064" d="M732 623l-321 -395l-3 -4h541l41 40h8v-223h-232l-40 -41h-669v182l38 46l321 395h116l233 288h-116h1h-394l-52 -52h-144v224h367l52 52h521v-182l-34 -42z" />
<glyph unicode="[" horiz-adv-x="649" d="M637 990h-251v-1164h251v-149h-409v1308l5 5h-5v-5l-88 -88v246h497v-153z" />
<glyph unicode="\" horiz-adv-x="917" d="M656 345l149 -337h-201l-88 197l-55 -54l-100 228l54 54l-312 707h201l251 -567l-71 -71l101 -228z" />
<glyph unicode="]" horiz-adv-x="698" d="M127 1143h418v-1127l-70 -70v-269h-348v149h241v1164h-241v153z" />
<glyph unicode="^" horiz-adv-x="862" d="M774 702q-6 -6 -15.5 -20t-11.5 -17q34 -52 53 -80h-143q28 21 43 32q-133 205 -216 334q-35 -54 -116 -178t-124 -189h-184q59 95 179 278t177 275h132q44 -67 130 -200.5t130 -200.5q-23 -21 -34 -34z" />
<glyph unicode="_" horiz-adv-x="679" d="M550 0h-550v124h550v-124z" />
<glyph unicode="b" horiz-adv-x="880" d="M788 639v-353l33 -33l-253 -253h-526v292l112 111v737h227v-398l89 89h126zM565 302v272l-58 58h-126v-1l-111 -112v-328h184z" />
<glyph unicode="c" horiz-adv-x="1009" d="M800 305l150 -149l-154 -156h-406l-191 192v146h-1v18l-126 -126v82h1v289l227 229h471l159 -159l-137 -136l-104 104h-319l-1 -1h-3l-68 -68v-3l-1 -1v-111l124 116l4 -312v-3l68 -67h189l1 1h3z" />
<glyph unicode="d" horiz-adv-x="944" d="M851 1142v-204l-107 -107h1v-344l106 107v-516l-77 -78h-149v94l-93 -94h-371l-111 111l33 34v458l228 228h314v311h226zM274 190h106l132 133v251l59 58h-159l-106 -106v-158l-105 -105zM625 303v65l-177 -178h64z" />
<glyph unicode="f" horiz-adv-x="817" d="M821 641h-363v-172l122 122v-591h-219v372l-128 -130l-1 399h-157v190h179v141l168 168h281l-1 -187h-183l-61 -62v-60h245v-117l118 118v-191z" />
<glyph unicode="g" horiz-adv-x="952" d="M311 821h538v-791l-96 -96v-84l-10 -10l-191 -190h-306l-137 137l53 53l87 87l87 -87h197l91 90v178l-117 -116h-248l-184 184v409zM624 301v330h-200l-117 -117v-254l68 -68h139z" />
<glyph unicode="h" horiz-adv-x="995" d="M856 611h1l34 34v-645h-219v426l-129 -129v294l-50 50l-121 -122l-126 -125v-394h-229q0 25 -1 65q-1 83 7 102q7 16 42 48q47 42 84 82v848h223v-416l16 17l86 86h161l25 -24l108 -109v-176z" />
<glyph unicode="j" horiz-adv-x="524" d="M326 421l120 119v-729l-162 -161h-232v203h139l35 35v433l-122 -123l-3 631h222zM326 911h-222v227h222v-227z" />
<glyph unicode="k" horiz-adv-x="909" d="M469 436l435 -436h-314l-312 312v-312h-213v472l116 116v553h223v-330l-126 -126v-174l58 58l68 68l191 191h267z" />
<glyph unicode="l" horiz-adv-x="524" d="M415 1142h4v-1142h-226v919l-132 -132v355h232v-123z" />
<glyph unicode="m" horiz-adv-x="1423" d="M1226 832l149 -149v-251l-129 -129v-303h-223v80l123 122v394l-46 45h-122l-97 -96v-545h-222v515l-133 -132v213l-45 45h-83l-136 -135v-387l119 119v-238h-345v280l126 126v426h219v-65l65 65h164l97 -97l97 97h422z" />
<glyph unicode="n" horiz-adv-x="1003" d="M776 795l123 -122v-673h-238v602l-36 37h-234l-112 -111v-230l97 96v-394h-239v155l-80 -80v281l80 79v397h215v-109l109 109h186l83 -83z" />
<glyph unicode="p" horiz-adv-x="958" d="M195 834h477l221 -221v-338q-25 -25 -133 -133.5t-135 -135.5h-277v-281l-69 -69h-210v42l126 126v449l-126 -126v378l126 126v183zM742 375v193l-76 76h-262q-14 -14 -54 -54.5t-53 -53.5v-161l129 129v-305h140z" />
<glyph unicode="q" horiz-adv-x="923" d="M835 833v-450l-115 -115v-378l112 113h3v-348h-224v127l-126 -125v376l-30 -30h-207l-170 171v430l229 229h528zM491 192l120 120v323h-200l-110 -111v-239l93 -93h97z" />
<glyph unicode="r" horiz-adv-x="692" d="M693 634l1 -10l-288 1h-45l-106 -107v-113l113 113v-512h-213v299l-78 -77v390l178 178v-81l119 119h319v-200z" />
<glyph unicode="s" horiz-adv-x="829" d="M642 516q17 -17 66.5 -67t65.5 -66l-59 -59v-156l-164 -164h-348l-144 144l141 141l104 -104h1h6h264l21 21v69l-55 56h-293l-163 164v187l150 150h431l143 -143q-13 -13 -67.5 -67t-68.5 -68l-97 97h-95h-128l-42 -42v-48l45 -45h286z" />
<glyph unicode="t" horiz-adv-x="821" d="M485 646v-289l-95 -95l71 -72h271v-191h-393l-106 106l30 30v511h-188v188h188v306h73l149 -149v-157h157l90 -90v-98h-247z" />
<glyph unicode="v" horiz-adv-x="960" d="M777 827h202l-85 -242l-169 -483l-33 -96l-2 -6h-224l-168 482l-83 -82l-114 326l-35 101h222l92 -262l86 86l125 -356z" />
<glyph unicode="w" horiz-adv-x="1425" d="M1239 832h202l-270 -832h-204l-183 566l-184 -566h-211l-201 619l-41 -41l-82 254h201l33 -102l46 46l170 -522l185 571l2 7h162l3 -9l185 -569z" />
<glyph unicode="x" horiz-adv-x="972" d="M722 263l192 -270h-263l-83 116l-52 -52l-131 184l-21 30l-137 -193l-61 -85h-84l96 134l144 203l44 62l-306 431h263l175 -246l175 246h127l-239 -334l-30 -43l156 -218z" />
<glyph unicode="z" horiz-adv-x="884" d="M771 633l-232 -286l-127 -157h343l35 34h6v-189h-196l-34 -35h-497v154l30 38h1l125 155h115l232 286h-115v1h-172l-52 -52h-142v222l364 -1l52 52h298v-180z" />
<glyph unicode="{" horiz-adv-x="555" d="M392 1144h142v-150h-65l-82 -81v-299l-90 -91l-73 -73l-45 -45l45 -45l73 -73v-373l90 -90v1h147v-150h-224l-166 166v390l-80 80v122l43 43l117 117v382l19 19l54 55l90 90z" />
<glyph unicode="}" horiz-adv-x="673" d="M123 -182l154 7l80 80v117l-81 -58v316l126 126l-118 134l-14 373l-80 78h-67v147h146l162 -162l13 -403l127 -133v-65l-136 -136v-111l81 59l3 -334l-175 -175h-221v140z" />
<glyph unicode="~" horiz-adv-x="1017" d="M861 702l102 -103l-203 -203h-199l-196 196l-43 -43l-154 -153l-116 116l36 37l164 163h212l204 -203l40 40z" />
<glyph unicode="&#xa2;" horiz-adv-x="989" d="M848 157l17 -17l-145 -146h-154v-165h-142v165h-161l-172 172v470l172 172h161v165h142v-165h145l50 -50l96 -96l-119 -119l-95 97l-13 12h-64v-89l-56 -55v-351h134l102 102zM424 152v500h-71l-76 -77v-347l76 -76h71z" />
<glyph unicode="&#xa3;" horiz-adv-x="1107" d="M424 263l-87 -87h634v-172h-852v156l113 113v197h-113v173h113v197h-119l124 124v-2l177 177h389l168 -169l-130 -130l-128 127h-212l-127 -127h50v-197h414v-173h-414v-207z" />
<glyph unicode="&#xa5;" horiz-adv-x="1157" d="M1089 1133l-348 -495h292v-135h-327v-147h327v-132h-397v-229h-264l142 142v85h-327v134h327v147h-327v135h294l-351 495h241l246 -373l19 29l227 344h226z" />
<glyph unicode="&#xa9;" horiz-adv-x="1265" d="M892 1135l253 -237l-7 -650l-3 -3v-2h-2l-227 -227h-602l-243 220v135l97 126v387l250 251h484zM1003 850l4 -1l-183 155h-366l-158 -157v-206l-108 -174l-1 -163l171 -158h505l136 135v569zM551 714l-59 -60v-259l59 -59h176l84 83l92 -92l-113 -113h-308l-134 133v354 l134 134h302l113 -113l-93 -93l-83 85h-170z" />
<glyph unicode="&#xae;" horiz-adv-x="761" d="M553 858l-38 -38l52 -96h-75l-50 94h-48l-7 -8v-86h-62v271h183l45 -45v-92zM489 891v27l-18 18h-76l-7 -7v-50h88zM248 1134h335l120 -115v-320l-115 -114h-300l-44 44l-49 49l-21 21v176l-47 -47l-1 184l69 69l49 49zM633 722v270l-78 78h-282l-77 -77v-96l47 47v-12 l-1 -1v-210l2 -1l76 -71h240z" />
<glyph unicode="&#xc4;" horiz-adv-x="1163" d="M926 409l160 -409h-268l-78 220h-457l-79 -220h-166l1 1h-91l443 1133h252l149 -380l-58 -58l126 -353zM363 444h251l-35 97l34 34l-102 284z" />
<glyph unicode="&#xca;" horiz-adv-x="1116" d="M1025 926h-661v-242h577v-216h-577v-125l-127 -127h651l137 -137v-79h-1004l104 105v1027h900v-206z" />
<glyph unicode="&#xce;" horiz-adv-x="862" d="M489 206h319l-92 -91l-1 -26h-1v-89h-628v91l115 115h72v104l93 93v526h-312v1l115 115v92h549v-208h-107v-281l-122 -122v-320z" />
<glyph unicode="&#xd6;" horiz-adv-x="1167" d="M956 832v-400l126 126v-338l-126 -126l-94 -94h-738l92 92l-122 122v683l236 235h520l106 -105l85 -86l12 -12zM745 622l119 118v91l-111 110h-324l-112 -112v-550l43 -43l-43 -43l-19 -19h334l113 113v335z" />
<glyph unicode="&#xdb;" horiz-adv-x="1091" d="M1016 836l-125 -124v-222l125 124v-261l-356 -353h-488l61 61l-153 152v921h237v-838l88 -88h127l112 110v149l133 132v535h239v-298zM777 318v59l-172 -170h59z" />
<glyph unicode="&#xdd;" horiz-adv-x="1126" d="M729 1138h361l-383 -582l-3 -4l-11 -42v-214l-70 -67v-119l70 72v-182h-285l46 46v444l-49 75l-51 -50l-18 27l-103 156l1 1l-1 1l50 50v-1l2 1l-220 334l-32 48l-3 6h294l138 -211l-83 -83l78 -119l83 126z" />
<glyph unicode="&#xe4;" horiz-adv-x="921" d="M827 681v-184l-58 -58v-246l58 59v-194l-58 -58h-161v105l-7 -7l-98 -98h-283l-132 132v207l125 125h395v139l-2 -2l-50 50h-222l-117 -116l-146 147l146 147h462l77 -77zM608 277v49h-278l-42 -42v-45l46 -45h190l18 17z" />
<glyph unicode="&#xea;" horiz-adv-x="929" d="M627 230l82 82l148 -148l-31 -31l-51 -51l-82 -82h-460l-167 167v370l297 297h289l174 -174v-326h-542v-77l58 -59h254zM291 590v-70h305v70l-68 68h-169z" />
<glyph unicode="&#xee;" horiz-adv-x="436" d="M388 914h-228v228h228v-228zM160 435v397h228v-169l-121 -121v-542h-223v319z" />
<glyph unicode="&#xf6;" horiz-adv-x="954" d="M749 833l171 -171v-174l-68 -68l-61 -61v-181l-97 -97l-64 -64l-16 -15l-1 -1h-280l-184 184v345l-16 -16l-107 -107v252l175 174h548zM694 262v316l-65 65h-196l-58 -58v-313l77 -78h174z" />
<glyph unicode="&#xfb;" horiz-adv-x="946" d="M746 506v-311l2 1l101 101v-296h-212v85l-74 -74l-67 67l-78 -78h-167l-147 148v685h223v-586l52 -52h58l180 180v458h232v-226z" />
<glyph unicode="&#xfd;" horiz-adv-x="874" d="M678 820h216l-299 -811l-103 -281l-78 -79l-16 -15h-276v219h200l8 23l49 132l-129 350l-71 -71l-57 155l-51 140l70 71l-19 52l-42 115h217l3 -8l-66 -66l109 -295l66 66l78 -214l170 462z" />
<glyph unicode="&#x2000;" horiz-adv-x="682" />
<glyph unicode="&#x2001;" horiz-adv-x="1365" />
<glyph unicode="&#x2002;" horiz-adv-x="682" />
<glyph unicode="&#x2003;" horiz-adv-x="1365" />
<glyph unicode="&#x2004;" horiz-adv-x="455" />
<glyph unicode="&#x2005;" horiz-adv-x="341" />
<glyph unicode="&#x2006;" horiz-adv-x="227" />
<glyph unicode="&#x2007;" horiz-adv-x="227" />
<glyph unicode="&#x2008;" horiz-adv-x="170" />
<glyph unicode="&#x2009;" horiz-adv-x="273" />
<glyph unicode="&#x200a;" horiz-adv-x="75" />
<glyph unicode="&#x2018;" horiz-adv-x="395" d="M339 774h-210v163l210 210l-66 -163h66v-210z" />
<glyph unicode="&#x2019;" horiz-adv-x="393" d="M154 1142h210v-164l-210 -210l67 164h-67v210z" />
<glyph unicode="&#x201c;" horiz-adv-x="708" d="M313 682h-210v163l210 210l-66 -163h66v-210zM651 682h-210v163l148 296h96l-101 -249h67v-210z" />
<glyph unicode="&#x201d;" horiz-adv-x="700" d="M482 1136h210v-164l-210 -210l67 164h-67v210zM145 1136h210v-164l-149 -296h-96l101 250h-66v210z" />
<glyph unicode="&#x202f;" horiz-adv-x="273" />
<glyph unicode="&#x205f;" horiz-adv-x="341" />
<glyph unicode="&#x20ac;" horiz-adv-x="1071" d="M500 172h456l-16 -76l-18 -86h-509l-190 190v159h-116v127h116v142h-116v127h116v58l185 -185v-142h422l-26 -127h-396v-95zM366 670l-185 185v102l190 190h543l-34 -163h-422l-92 -92v-95h477l-26 -127h-451z" />
<glyph unicode="&#x2122;" horiz-adv-x="1241" d="M555 1121v-96h-163v-171l-101 -102v273h-163v96h427zM291 608h-145l145 144v-144zM642 1104l45 -79l56 -97v-320h-109v198l-79 -79v290zM1071 1121h99v-513h-102v329l-114 -199l-30 -51h-43l-29 51l-104 182l65 64l90 -157l113 198l52 90z" />
<glyph unicode="&#x25fc;" horiz-adv-x="819" d="M0 819h819v-819h-819v819z" />
</font>
</defs>
</svg>
